{"title":"A Place To Call Home - S04E05 - Happy Days Are Here Again","uid":16004643,"size":1193686708,"categoryP":"video","categoryS":"tv_shows","magnet":"?xt=urn:btih:b316840ac64dabd156175860cdc5bf30dda86337&amp;dn=A+Place+To+Call+Home+-+S04E05+-+Happy+Days+Are+Here+Again&amp;tr=udp%3A%2F%2Ftracker.leechers-paradise.org%3A6969&amp;tr=udp%3A%2F%2Fzer0day.ch%3A1337&amp;tr=udp%3A%2F%2Fopen.demonii.com%3A1337&amp;tr=udp%3A%2F%2Ftracker.coppersurfer.tk%3A6969&amp;tr=udp%3A%2F%2Fexodus.desync.com%3A6969","seeders":7,"leechers":1,"uploader":"Bullrout","files":1,"time":1476159713,"description":"A Place To Call Home - S04E05 - Happy Days Are Here Again\r\n\r\nSarah, Elizabeth and Anna devise a plan to destroy Regina. James shares his feelings with Henry - but will Harry's return spell trouble in paradise? Regina initiates a dangerous new strategy to get rid of Sarah.\r\n\r\n\r\nComplete name                            : A Place To Call Home - S04E05 - Happy Days Are Here Again.mkv\r\nFormat                                   : Matroska\r\nFormat version                           : Version 4 / Version 2\r\nFile size                                : 1.11 GiB\r\nDuration                                 : 48 min 23 s\r\nOverall bit rate mode                    : Variable\r\nOverall bit rate                         : 3 289 kb/s\r\nEncoded date                             : UTC 2016-10-10 07:27:58\r\nWriting application                      : mkvmerge v9.4.2 ('So High') 64bit\r\nWriting library                          : libebml v1.3.4 + libmatroska v1.4.5\r\n\r\nVideo\r\nID                                       : 2\r\nFormat                                   : AVC\r\nFormat/Info                              : Advanced Video Codec\r\nFormat profile                           :   \r\nFormat settings, CABAC                   : Yes\r\nFormat settings, ReFrames                : 3 frames\r\nCodec ID                                 : V_MPEG4/ISO/AVC\r\nDuration                                 : 48 min 23 s\r\nBit rate mode                            : Variable\r\nBit rate                                 : 2 904 kb/s\r\nMaximum bit rate                         : 3 000 kb/s\r\nWidth                                    : 1 280 pixels\r\nHeight                                   : 720 pixels\r\nDisplay aspect ratio                     : 16:9\r\nFrame rate mode                          : Constant\r\nFrame rate                               : 25.000 FPS\r\nStandard                                 : PAL\r\nColor space                              : YUV\r\nChroma subsampling                       : 4:2:0\r\nBit depth                                : 8 bits\r\nScan type                                : Progressive\r\nBits/(Pixel*Frame)                       : 0.126\r\nStream size                              : 1 005 MiB (88%)\r\nWriting library                          : x264 core 112\r\nDefault                                  : Yes\r\nForced                                   : No\r\nColor range                              : Limited\r\nColor primaries                          : BT.709\r\nTransfer characteristics                 : BT.709\r\nMatrix coefficients                      : BT.709\r\n\r\nAudio\r\nID                                       : 1\r\nFormat                                   : AC-3\r\nFormat/Info                              : Audio Coding 3\r\nMode extension                           : CM (complete main)\r\nFormat settings, Endianness              : Big\r\nCodec ID                                 : A_AC3\r\nDuration                                 : 48 min 23 s\r\nBit rate mode                            : Constant\r\nBit rate                                 : 384 kb/s\r\nChannel(s)                               : 6 channels\r\nChannel positions                        : Front: L C R, Side: L R, LFE\r\nSampling rate                            : 48.0 kHz\r\nFrame rate                               : 31.250 FPS (1536 spf)\r\nCompression mode                         : Lossy\r\nStream size                              : 133 MiB (12%)\r\nDefault                                  : Yes\r\nForced                                   : No","torrent":{"xt":"urn:btih:b316840ac64dabd156175860cdc5bf30dda86337","amp;dn":"A+Place+To+Call+Home+-+S04E05+-+Happy+Days+Are+Here+Again","amp;tr":["udp%3A%2F%2Ftracker.leechers-paradise.org%3A6969","udp%3A%2F%2Fzer0day.ch%3A1337","udp%3A%2F%2Fopen.demonii.com%3A1337","udp%3A%2F%2Ftracker.coppersurfer.tk%3A6969","udp%3A%2F%2Fexodus.desync.com%3A6969"],"infoHash":"b316840ac64dabd156175860cdc5bf30dda86337","infoHashBuffer":{"type":"Buffer","data":[179,22,132,10,198,77,171,209,86,23,88,96,205,197,191,48,221,168,99,55]},"announce":[],"urlList":[]}}